<svg xmlns="http://www.w3.org/2000/svg" width="370" height="92" viewBox="0 0 370 91.78">
  <!-- Heart symbol -->
  <g transform="matrix(0.13376543662446053,0,0,0.13376543662446053,-25.8354522658072,-29.94700246711667)" fill="#000000">
    <path d="M607.961,525.872c0-22.671-18.389-41.034-41.033-41.034c-22.646,0-41.031,18.362-41.031,41.034 c0,18.135,11.822,33.315,28.107,38.777l-28.107,84.371h82.064l-28.107-84.371C596.139,559.187,607.961,544.007,607.961,525.872z"></path>
    <path d="M874.876,289.8c-42.528-42.502-99.072-65.91-159.216-65.91c-55.302,0-107.553,19.783-148.67,56.003 c-41.112-36.228-93.352-56.016-148.635-56.016c-60.155,0-116.713,23.431-159.26,65.977 c-42.531,42.544-65.955,99.097-65.955,159.241c0,60.146,23.424,116.686,65.958,159.208l307.89,301.677l307.782-301.571 l0.108-0.107C962.663,520.517,962.665,377.641,874.876,289.8z M853.72,587.034L566.989,867.979L280.256,587.033 c-36.832-36.848-57.115-85.833-57.115-137.938c0-52.132,20.304-101.152,57.169-138.029 c36.878-36.878,85.903-57.188,138.045-57.188c52.141,0,101.159,20.31,138.025,57.187l10.607,10.61l10.608-10.608 c36.87-36.87,85.902-57.175,138.064-57.175c52.134,0,101.146,20.289,138.003,57.123 C929.736,387.133,929.755,510.939,853.72,587.034z"></path>
    <path d="M418.347,284.641c-90.334,0-163.828,73.495-163.828,163.828c0,8.761,7.155,15.964,15.963,15.964 c8.811,0,15.94-7.203,15.94-15.964c0-72.714,59.185-131.898,131.924-131.898c8.809,0,15.94-7.155,15.94-15.964 C434.287,291.796,427.155,284.641,418.347,284.641z"></path>
  </g>
  
  <!-- "match" text -->
  <g transform="matrix(3.554165666985263,0,0,3.554165666985263,119.00483286755049,-0.46715879825207196)" fill="#000000">
    <path d="M5.82 20.26 c-3.46 0 -5.36 -1.72 -5.54 -4.54 l3.1 0 c0.06 1.04 0.66 2.08 2.52 2.08 c1.56 0 2.36 -0.62 2.36 -1.48 c0 -1.06 -1.34 -1.34 -2.9 -1.68 c-2.18 -0.52 -4.84 -1.16 -4.84 -4.42 c0 -2.4 1.86 -4.18 5.14 -4.18 c3.34 0 5.18 1.82 5.38 4.5 l-3.12 0 c-0.06 -1.1 -0.66 -1.98 -2.34 -1.98 c-1.24 0 -2.06 0.5 -2.06 1.4 c0 1.16 1.36 1.48 2.92 1.84 c2.24 0.5 4.92 1.06 4.92 4.14 c0 2.5 -1.96 4.32 -5.54 4.32 z M15.7 20 l-3.1 0 l0 -13.7 l3.1 0 l0 13.7 z M22.74 9.14 l-2.28 0 l0 3.66 l2.18 0 c1.34 0 2.16 -0.76 2.16 -1.82 s-0.68 -1.84 -2.06 -1.84 z M20.46 15.34 l0 4.66 l-3.1 0 l0 -13.7 l5.84 0 c2.92 0 4.72 1.88 4.72 4.56 c0 2.14 -1.42 3.92 -3.74 4.38 l4.36 4.76 l-4.04 0 z M32.76 20 l-3.1 0 l0 -13.7 l3.1 0 l0 13.7 z M34.42 20 l0 -13.7 l3.1 0 l0 10.86 l6.36 0 l0 2.84 l-9.46 0 z M51.160000000000004 20.24 c-3.84 0 -5.94 -2.28 -5.94 -5.68 l0 -8.26 l3.1 0 l0 7.84 c0 2.08 1.02 3.22 2.82 3.22 c1.78 0 2.78 -1.14 2.78 -3.22 l0 -7.84 l3.1 0 l0 8.26 c0 3.4 -2.08 5.68 -5.86 5.68 z M67.02 20 l-2.88 -4.54 l-2.84 4.54 l-3.44 0 l4.6 -6.88 l-4.46 -6.82 l3.6 0 l2.76 4.38 l2.74 -4.38 l3.46 0 l-4.5 6.74 l4.56 6.96 l-3.6 0 z"></path>
  </g>
</svg>